<svg id="Layer_1" data-name="Layer 1" xmlns="http://www.w3.org/2000/svg" viewBox="0 0 900 900"><path d="M661.65,142.67C604.93,126.21,529.76,117.14,450,117.14s-154.93,9.07-211.65,25.53c-62.9,18.25-96.15,43.74-96.15,73.72V683.61c0,30,33.25,55.47,96.15,73.72,56.72,16.46,131.89,25.53,211.65,25.53s154.93-9.07,211.65-25.53c62.9-18.25,96.15-43.74,96.15-73.72V216.39C757.8,186.41,724.55,160.92,661.65,142.67Zm-415.5,26.89c54.26-15.75,126.66-24.42,203.85-24.42s149.59,8.67,203.85,24.42c56.06,16.26,75.95,35.39,75.95,46.83S709.91,247,653.85,263.22C599.59,279,527.19,287.64,450,287.64S300.41,279,246.15,263.22c-56.06-16.26-76-35.39-76-46.83S190.09,185.82,246.15,169.56ZM729.8,260.22V639.78c-16.06-11.35-38.89-21.4-68.15-29.89C604.93,593.43,529.76,584.36,450,584.36s-154.93,9.07-211.65,25.53c-29.26,8.48-52.09,18.54-68.15,29.89V260.22c16.06,11.35,38.89,21.4,68.15,29.89,56.72,16.46,131.89,25.53,211.65,25.53s154.93-9.07,211.65-25.53C690.91,281.62,713.74,271.57,729.8,260.22ZM653.85,730.44C599.59,746.19,527.19,754.86,450,754.86s-149.59-8.67-203.85-24.42c-56.06-16.26-76-35.39-76-46.83s19.89-30.57,76-46.83C300.41,621,372.81,612.36,450,612.36S599.59,621,653.85,636.78c56.06,16.26,75.95,35.39,75.95,46.83S709.91,714.18,653.85,730.44Z"/></svg>